<?xml version="1.0" encoding="utf-8"?>
<svg version="1.1" xmlns:xlink="http://www.w3.org/1999/xlink" width="120px" height="120px" xmlns="http://www.w3.org/2000/svg">
  <defs>
    <mask fill="white" id="clip95">
      <path d="M 688 680  C 660.25 680  638 657.75  638 630  L 638 610  C 638 582.25  660.25 560  688 560  L 708 560  C 735.75 560  758 582.25  758 610  L 758 630  C 758 657.75  735.75 680  708 680  " fill-rule="evenodd" />
    </mask>
  </defs>
  <g transform="matrix(1 0 0 1 -638 -560 )">
    <path d="M 638 560  L 758 560  L 758 680  L 638 680  L 638 560  " fill-rule="nonzero" fill="#cccccc" stroke="none" mask="url(#clip95)" />
    <path d="M 646 568  L 750 568  L 750 672  L 646 672  L 646 568  " fill-rule="nonzero" fill="#ffffff" stroke="none" mask="url(#clip95)" />
    <path d="M 709.4 596  C 704.36 596  700.4 592.04  700.4 587  C 700.4 581.96  704.36 578  709.4 578  C 714.44 578  718.4 581.96  718.4 587  C 718.4 592.04  714.44 596  709.4 596  " fill-rule="nonzero" fill="#cccccc" stroke="none" mask="url(#clip95)" />
    <path d="M 649 669  L 649 615.1  L 673.5 590.6  L 707.8 610.2  L 727.4 605.3  L 747 610.2  L 747 669  L 649 669  " fill-rule="nonzero" fill="#169bd5" stroke="none" mask="url(#clip95)" />
  </g>
</svg>