<?xml version="1.0" encoding="utf-8"?>
<svg version="1.1" xmlns:xlink="http://www.w3.org/1999/xlink" width="300px" height="170px" xmlns="http://www.w3.org/2000/svg">
  <defs>
    <mask fill="white" id="clip112">
      <path d="M 188 816  C 185.225 816  183 813.775  183 811  L 183 651  C 183 648.225  185.225 646  188 646  L 478 646  C 480.775 646  483 648.225  483 651  L 483 811  C 483 813.775  480.775 816  478 816  " fill-rule="evenodd" />
    </mask>
  </defs>
  <g transform="matrix(1 0 0 1 -183 -646 )">
    <path d="M 183 646  L 483 646  L 483 816  L 183 816  L 183 646  " fill-rule="nonzero" fill="#cccccc" stroke="none" mask="url(#clip112)" />
    <path d="M 195 658  L 471 658  L 471 804  L 195 804  L 195 658  " fill-rule="nonzero" fill="#ffffff" stroke="none" mask="url(#clip112)" />
    <path d="M 351.75 697  C 344.61 697  339 691.39  339 684.25  C 339 677.11  344.61 671.5  351.75 671.5  C 358.89 671.5  364.5 677.11  364.5 684.25  C 364.5 691.39  358.89 697  351.75 697  " fill-rule="nonzero" fill="#cccccc" stroke="none" mask="url(#clip112)" />
    <path d="M 200 800  L 200 724.65  L 266.75 690.4  L 360.2 753.42  L 413.6 710.95  L 467 753.42  L 467 800  L 200 800  " fill-rule="nonzero" fill="#169bd5" stroke="none" mask="url(#clip112)" />
  </g>
</svg>