<?xml version="1.0" encoding="utf-8"?>
<svg version="1.1" xmlns:xlink="http://www.w3.org/1999/xlink" width="810px" height="435px" xmlns="http://www.w3.org/2000/svg">
  <defs>
    <mask fill="white" id="clip113">
      <path d="M 293 400  C 287.45 400  283 395.55  283 390  L 283 10  C 283 4.45  287.45 0  293 0  L 1073 0  C 1078.55 0  1083 4.45  1083 10  L 1083 390  C 1083 395.55  1078.55 400  1073 400  " fill-rule="evenodd" />
    </mask>
    <filter x="278px" y="0px" width="810px" height="435px" filterUnits="userSpaceOnUse" id="filter114">
      <feOffset dx="0" dy="30" in="SourceAlpha" result="shadowOffsetInner" />
      <feGaussianBlur stdDeviation="2.5" in="shadowOffsetInner" result="shadowGaussian" />
      <feComposite in2="shadowGaussian" operator="atop" in="SourceAlpha" result="shadowComposite" />
      <feColorMatrix type="matrix" values="0 0 0 0 0.949019607843137  0 0 0 0 0.949019607843137  0 0 0 0 0.949019607843137  0 0 0 1 0  " in="shadowComposite" />
    </filter>
    <g id="widget115">
      <path d="M 283 0  L 1083 0  L 1083 400  L 283 400  L 283 0  " fill-rule="nonzero" fill="#cccccc" stroke="none" mask="url(#clip113)" />
      <path d="M 311 28  L 1055 28  L 1055 372  L 311 372  L 311 28  " fill-rule="nonzero" fill="#ffffff" stroke="none" mask="url(#clip113)" />
      <path d="M 729 120  C 712.2 120  699 106.8  699 90  C 699 73.2  712.2 60  729 60  C 745.8 60  759 73.2  759 90  C 759 106.8  745.8 120  729 120  " fill-rule="nonzero" fill="#cccccc" stroke="none" mask="url(#clip113)" />
      <path d="M 321 362  L 321 183.8  L 502 102.8  L 755.4 264.8  L 900.2 151.4  L 1045 264.8  L 1045 362  L 321 362  " fill-rule="nonzero" fill="#169bd5" stroke="none" mask="url(#clip113)" />
    </g>
  </defs>
  <g transform="matrix(1 0 0 1 -278 0 )">
    <use xlink:href="#widget115" filter="url(#filter114)" />
    <use xlink:href="#widget115" />
  </g>
</svg>